<svg width="32" height="23" viewBox="0 0 32 23" fill="none" xmlns="http://www.w3.org/2000/svg">
<path d="M0 0.5H32V22.5H0V0.5Z" fill="white"/>
<path d="M0 0.5H32V2.19181H0V0.5ZM0 3.88363H32V5.57544H0V3.88363ZM0 7.26725H32V8.95906H0V7.26725ZM0 10.6509H32V12.3427H0V10.6509ZM0 14.0409H32V15.7327H0V14.0409ZM0 17.4246H32V19.1164H0V17.4246ZM0 20.8082H32V22.5H0V20.8082Z" fill="#D80027"/>
<path d="M0 0.5H16V12.3427H0V0.5Z" fill="#2E52B2"/>
<path d="M2.98168 9.43509L2.73216 8.6117L2.4577 9.43509H1.63431L2.30175 9.93041L2.05224 10.7538L2.73216 10.2456L3.39337 10.7538L3.13762 9.93041L3.81754 9.43509H2.98168ZM6.49357 9.43509L6.23782 8.6117L5.97583 9.43509H5.15244L5.81988 9.93041L5.57037 10.7538L6.23782 10.2456L6.9115 10.7538L6.66199 9.93041L7.32943 9.43509H6.49357ZM10.0179 9.43509L9.74971 8.6117L9.5002 9.43509H8.65809L9.34425 9.93041L9.08226 10.7538L9.74971 10.2456L10.4359 10.7538L10.1739 9.93041L10.8413 9.43509H10.0179ZM13.5236 9.43509L13.2741 8.6117L13.0121 9.43509H12.1825L12.8561 9.93041L12.6066 10.7538L13.2741 10.2456L13.9478 10.7538L13.6795 9.93041L14.3657 9.43509H13.5236ZM6.23782 5.34386L5.97583 6.16725H5.15244L5.81988 6.67544L5.57037 7.48596L6.23782 6.98421L6.9115 7.48596L6.66199 6.67544L7.32943 6.16725H6.49357L6.23782 5.34386ZM2.73216 5.34386L2.4577 6.16725H1.63431L2.30175 6.67544L2.05224 7.48596L2.73216 6.98421L3.39337 7.48596L3.13762 6.67544L3.81754 6.16725H2.98168L2.73216 5.34386ZM9.74971 5.34386L9.5002 6.16725H8.65809L9.34425 6.67544L9.08226 7.48596L9.74971 6.98421L10.4359 7.48596L10.1739 6.67544L10.8413 6.16725H10.0179L9.74971 5.34386ZM13.2741 5.34386L13.0121 6.16725H12.1825L12.8561 6.67544L12.6066 7.48596L13.2741 6.98421L13.9478 7.48596L13.6795 6.67544L14.3657 6.16725H13.5236L13.2741 5.34386ZM2.73216 2.08889L2.4577 2.89942H1.63431L2.30175 3.4076L2.05224 4.22456L2.73216 3.71637L3.39337 4.22456L3.13762 3.4076L3.81754 2.89942H2.98168L2.73216 2.08889ZM6.23782 2.08889L5.97583 2.89942H5.15244L5.81988 3.4076L5.57037 4.22456L6.23782 3.71637L6.9115 4.22456L6.66199 3.4076L7.32943 2.89942H6.49357L6.23782 2.08889ZM9.74971 2.08889L9.5002 2.89942H8.65809L9.34425 3.4076L9.08226 4.22456L9.74971 3.71637L10.4359 4.22456L10.1739 3.4076L10.8413 2.89942H10.0179L9.74971 2.08889ZM13.2741 2.08889L13.0121 2.89942H12.1825L12.8561 3.4076L12.6066 4.22456L13.2741 3.71637L13.9478 4.22456L13.6795 3.4076L14.3657 2.89942H13.5236L13.2741 2.08889Z" fill="white"/>
</svg>
