<svg width="150" height="49" viewBox="0 0 150 49" fill="none" xmlns="http://www.w3.org/2000/svg">
<path d="M12.0975 12.2266C8.73065 12.2266 5.54954 13.6636 3.25077 16.1371V13.1924H0V49.0001H3.25077V32.7453C5.54954 35.2189 8.73065 36.6559 12.0975 36.6559C18.7384 36.6559 24.1486 31.1669 24.1486 24.4294C24.1486 17.6919 18.7384 12.2266 12.0975 12.2266ZM20.9211 24.453C20.9211 29.3766 16.9737 33.3814 12.1207 33.3814C7.2678 33.3814 3.32043 29.3766 3.32043 24.453C3.32043 19.5294 7.2678 15.5246 12.1207 15.5246C16.9737 15.5246 20.9211 19.5294 20.9211 24.453Z" fill="#146EF5"/>
<path d="M69.6825 12.2264C66.3156 12.2264 63.1345 13.6635 60.8357 16.137V0H57.585V35.8077H60.8357V32.7452C63.1345 35.2188 66.3156 36.6558 69.6825 36.6558C76.3234 36.6558 81.7336 31.1668 81.7336 24.4293C81.7336 17.6918 76.3234 12.2264 69.6825 12.2264ZM78.506 24.4529C78.506 29.3764 74.5586 33.3813 69.7057 33.3813C64.8528 33.3813 60.9054 29.3764 60.9054 24.4529C60.9054 19.5293 64.8528 15.5245 69.7057 15.5245C74.5586 15.5245 78.506 19.5293 78.506 24.4529Z" fill="#146EF5"/>
<path d="M90.5574 0H87.3066V35.8077H90.5574V0Z" fill="#146EF5"/>
<path d="M146.749 13.1924V23.3457C146.749 27.2799 146.192 29.4943 144.822 30.9313C142.825 33.0044 140.154 33.452 138.25 33.452C136.3 33.452 133.56 33.0044 131.61 30.9313C130.193 29.4236 129.566 27.1385 129.566 23.3457V13.1924H126.315V23.3457C126.315 28.1044 127.198 31.0491 129.241 33.2164C131.424 35.5251 134.535 36.7265 138.227 36.7265H138.297C141.919 36.703 144.984 35.478 147.144 33.2164C149.651 30.578 149.976 26.7381 149.976 23.3457V13.1924H146.749Z" fill="#146EF5"/>
<path d="M117.028 23.3457C117.028 27.2799 116.471 29.4943 115.101 30.9313C113.104 33.0044 110.434 33.452 108.53 33.452C106.579 33.452 103.839 33.0044 101.889 30.9313C100.472 29.4236 99.8455 27.1385 99.8455 23.3457V13.1924H96.5947V23.3457C96.5947 28.1044 97.4771 31.0491 99.5204 33.2164C101.703 35.5251 104.815 36.7265 108.506 36.7265H108.576C112.198 36.703 115.263 35.478 117.423 33.2164C119.931 30.578 120.256 26.7381 120.256 23.3457V13.1924H117.005V23.3457H117.028Z" fill="#146EF5"/>
<path d="M48.7616 23.3457C48.7616 27.2799 48.2043 29.4943 46.8343 30.9313C44.8374 33.0044 42.1671 33.452 40.2631 33.452C38.3126 33.452 35.5727 33.0044 33.6222 30.9313C32.2058 29.4236 31.5789 27.1385 31.5789 23.3457V13.1924H28.3281V23.3457C28.3281 28.1044 29.2105 31.0491 31.2538 33.2164C33.4365 35.5251 36.5479 36.7265 40.2399 36.7265H40.3096C43.9318 36.703 46.9969 35.478 49.1563 33.2164C51.664 30.578 51.9891 26.7381 51.9891 23.3457V13.1924H48.7383V23.3457H48.7616Z" fill="#146EF5"/>
</svg>
