<svg width="60" height="60" viewBox="0 0 60 60" fill="none" xmlns="http://www.w3.org/2000/svg">
<g opacity="0.3">
<path d="M27.5 37.4998H32.5V42.4998H27.5V37.4998ZM27.5 17.4998H32.5V32.4998H27.5V17.4998ZM30 4.99976C16.175 4.99976 5 16.2498 5 29.9998C5 36.6302 7.63392 42.989 12.3223 47.6774C14.6438 49.9989 17.3998 51.8404 20.4329 53.0967C23.4661 54.3531 26.717 54.9998 30 54.9998C36.6304 54.9998 42.9893 52.3658 47.6777 47.6774C52.3661 42.989 55 36.6302 55 29.9998C55 26.7167 54.3534 23.4658 53.097 20.4327C51.8406 17.3995 49.9991 14.6436 47.6777 12.3221C45.3562 10.0006 42.6002 8.15914 39.5671 6.90277C36.5339 5.6464 33.283 4.99976 30 4.99976ZM30 49.9998C24.6957 49.9998 19.6086 47.8926 15.8579 44.1419C12.1071 40.3912 10 35.3041 10 29.9998C10 24.6954 12.1071 19.6083 15.8579 15.8576C19.6086 12.1069 24.6957 9.99976 30 9.99976C35.3043 9.99976 40.3914 12.1069 44.1421 15.8576C47.8929 19.6083 50 24.6954 50 29.9998C50 35.3041 47.8929 40.3912 44.1421 44.1419C40.3914 47.8926 35.3043 49.9998 30 49.9998Z" fill="white"/>
</g>
</svg>
