<svg width="48" height="48" viewBox="0 0 48 48" fill="none" xmlns="http://www.w3.org/2000/svg">
<g opacity="0.3">
<path d="M16.125 10C16.125 7.84512 16.981 5.77849 18.5048 4.25476C20.0285 2.73102 22.0951 1.875 24.25 1.875C26.4049 1.875 28.4715 2.73102 29.9952 4.25476C31.519 5.77849 32.375 7.84512 32.375 10C32.375 11.05 33.2 11.875 34.25 11.875C35.3 11.875 36.125 11.05 36.125 10V8.125H39.875V10C39.875 11.4918 39.2824 12.9226 38.2275 13.9775C37.1726 15.0324 35.7418 15.625 34.25 15.625C32.7582 15.625 31.3274 15.0324 30.2725 13.9775C29.2176 12.9226 28.625 11.4918 28.625 10C28.625 8.83968 28.1641 7.72688 27.3436 6.90641C26.5231 6.08594 25.4103 5.625 24.25 5.625C23.0897 5.625 21.9769 6.08594 21.1564 6.90641C20.3359 7.72688 19.875 8.83968 19.875 10H23V13.225C30.225 15.375 35.5 22.075 35.5 30C35.5 34.6413 33.6563 39.0925 30.3744 42.3744C27.0925 45.6563 22.6413 47.5 18 47.5C13.3587 47.5 8.90752 45.6563 5.62563 42.3744C2.34374 39.0925 0.5 34.6413 0.5 30C0.5 22.075 5.775 15.375 13 13.225V10H16.125ZM43 10H48V12.5H43V10ZM35.5 5V0H38V5H35.5ZM40.275 5.95L43.825 2.4L45.6 4.175L42.05 7.725L40.275 5.95Z" fill="white"/>
</g>
</svg>
