<svg width="56" height="56" viewBox="0 0 56 56" fill="none" xmlns="http://www.w3.org/2000/svg">
<g opacity="0.3">
<path d="M48 25.5002H55.5V30.5002H48V25.5002ZM0.5 25.5002H8V30.5002H0.5V25.5002ZM30.5 0.500244V8.00024H25.5V0.500244H30.5ZM10.3 6.75024L15.625 12.1002L12.075 15.6252L6.75 10.3252L10.3 6.75024ZM40.375 12.0752L45.675 6.75024L49.25 10.3252L43.925 15.6252L40.375 12.0752ZM28 13.0002C31.9782 13.0002 35.7936 14.5806 38.6066 17.3936C41.4197 20.2067 43 24.022 43 28.0002C43 33.5502 39.975 38.4002 35.5 41.0002V45.5002C35.5 46.1633 35.2366 46.7992 34.7678 47.268C34.2989 47.7369 33.663 48.0002 33 48.0002H23C22.337 48.0002 21.7011 47.7369 21.2322 47.268C20.7634 46.7992 20.5 46.1633 20.5 45.5002V41.0002C16.025 38.4002 13 33.5502 13 28.0002C13 24.022 14.5804 20.2067 17.3934 17.3936C20.2064 14.5806 24.0218 13.0002 28 13.0002ZM33 50.5002V53.0002C33 53.6633 32.7366 54.2992 32.2678 54.768C31.7989 55.2369 31.163 55.5002 30.5 55.5002H25.5C24.837 55.5002 24.2011 55.2369 23.7322 54.768C23.2634 54.2992 23 53.6633 23 53.0002V50.5002H33ZM25.5 43.0002H30.5V37.6752C34.825 36.5752 38 32.6502 38 28.0002C38 25.3481 36.9464 22.8045 35.0711 20.9292C33.1957 19.0538 30.6522 18.0002 28 18.0002C25.3478 18.0002 22.8043 19.0538 20.9289 20.9292C19.0536 22.8045 18 25.3481 18 28.0002C18 32.6502 21.175 36.5752 25.5 37.6752V43.0002Z" fill="white"/>
</g>
</svg>
