<svg width="60" height="60" viewBox="0 0 60 60" fill="none" xmlns="http://www.w3.org/2000/svg">
<g opacity="0.3">
<path d="M32.8254 55.475L28.7504 45.9C32.6754 44.45 36.3504 42.5 39.7504 40.225L32.8254 55.475ZM14.1004 31.25L4.52539 27.175L19.7754 20.25C17.5004 23.65 15.5504 27.325 14.1004 31.25ZM48.0504 10C48.7504 10 49.3754 10 49.9004 10.125C50.3254 13.6 49.8504 20.75 41.6504 28.95C37.4004 33.225 32.3254 36.5 26.6254 38.675L21.2504 33.425C23.5504 27.65 26.8254 22.575 31.0504 18.35C37.9504 11.45 44.1004 10 48.0504 10ZM48.0504 5C43.1004 5 35.6004 6.725 27.5004 14.825C22.0254 20.3 18.7504 26.325 16.6254 31.6C15.9254 33.475 16.4004 35.525 17.7754 36.925L23.1004 42.225C24.0504 43.175 25.3254 43.75 26.6504 43.75C27.2254 43.75 27.8254 43.6 28.4004 43.375C33.7504 41.325 39.7004 37.975 45.1754 32.5C59.3254 18.35 54.0254 5.975 54.0254 5.975C54.0254 5.975 51.7504 5 48.0504 5ZM36.3504 23.65C34.4004 21.7 34.4004 18.525 36.3504 16.575C38.3004 14.625 41.4754 14.625 43.4254 16.575C45.3504 18.525 45.3754 21.7 43.4254 23.65C41.4754 25.6 38.3004 25.6 36.3504 23.65ZM15.6004 55L24.7004 45.9C23.8504 45.675 23.0254 45.3 22.2754 44.775L12.0754 55H15.6004ZM5.00039 55H8.52539L20.4504 43.1L16.9004 39.575L5.00039 51.475V55ZM5.00039 47.925L15.2254 37.725C14.7004 36.975 14.3254 36.175 14.1004 35.3L5.00039 44.4V47.925Z" fill="white"/>
</g>
</svg>
