<svg width="32" height="32" viewBox="0 0 32 32" fill="none" xmlns="http://www.w3.org/2000/svg">
<path d="M16 7.33325C17.2377 7.33325 18.4247 7.82492 19.2998 8.70009C20.175 9.57526 20.6667 10.7622 20.6667 11.9999C20.6667 13.2376 20.175 14.4246 19.2998 15.2998C18.4247 16.1749 17.2377 16.6666 16 16.6666C14.7623 16.6666 13.5753 16.1749 12.7002 15.2998C11.825 14.4246 11.3333 13.2376 11.3333 11.9999C11.3333 10.7622 11.825 9.57526 12.7002 8.70009C13.5753 7.82492 14.7623 7.33325 16 7.33325ZM6.66667 10.6666C7.41333 10.6666 8.10667 10.8666 8.70667 11.2266C8.50667 13.1333 9.06667 15.0266 10.2133 16.5066C9.54667 17.7866 8.21333 18.6666 6.66667 18.6666C5.6058 18.6666 4.58839 18.2452 3.83824 17.495C3.08809 16.7449 2.66667 15.7275 2.66667 14.6666C2.66667 13.6057 3.08809 12.5883 3.83824 11.8382C4.58839 11.088 5.6058 10.6666 6.66667 10.6666ZM25.3333 10.6666C26.3942 10.6666 27.4116 11.088 28.1618 11.8382C28.9119 12.5883 29.3333 13.6057 29.3333 14.6666C29.3333 15.7275 28.9119 16.7449 28.1618 17.495C27.4116 18.2452 26.3942 18.6666 25.3333 18.6666C23.7867 18.6666 22.4533 17.7866 21.7867 16.5066C22.9333 15.0266 23.4933 13.1333 23.2933 11.2266C23.8933 10.8666 24.5867 10.6666 25.3333 10.6666ZM7.33333 24.3333C7.33333 21.5733 11.2133 19.3333 16 19.3333C20.7867 19.3333 24.6667 21.5733 24.6667 24.3333V26.6666H7.33333V24.3333ZM0 26.6666V24.6666C0 22.8133 2.52 21.2533 5.93333 20.7999C5.14667 21.7066 4.66667 22.9599 4.66667 24.3333V26.6666H0ZM32 26.6666H27.3333V24.3333C27.3333 22.9599 26.8533 21.7066 26.0667 20.7999C29.48 21.2533 32 22.8133 32 24.6666V26.6666Z" fill="black"/>
</svg>
