<svg width="32" height="32" viewBox="0 0 32 32" fill="none" xmlns="http://www.w3.org/2000/svg">
<path d="M21.8137 18.6667C21.9203 17.7867 22.0003 16.9067 22.0003 16.0001C22.0003 15.0934 21.9203 14.2134 21.8137 13.3334H26.3203C26.5337 14.1867 26.667 15.0801 26.667 16.0001C26.667 16.9201 26.5337 17.8134 26.3203 18.6667M19.4537 26.0801C20.2537 24.6001 20.867 23.0001 21.2937 21.3334H25.227C23.947 23.5334 21.907 25.2401 19.4537 26.0801ZM19.1203 18.6667H12.8803C12.747 17.7867 12.667 16.9067 12.667 16.0001C12.667 15.0934 12.747 14.2001 12.8803 13.3334H19.1203C19.2403 14.2001 19.3337 15.0934 19.3337 16.0001C19.3337 16.9067 19.2403 17.7867 19.1203 18.6667ZM16.0003 26.6134C14.8937 25.0134 14.0003 23.2401 13.4537 21.3334H18.547C18.0003 23.2401 17.107 25.0134 16.0003 26.6134ZM10.667 10.6667H6.77366C8.04033 8.45341 10.0937 6.74675 12.5337 5.92008C11.7337 7.40008 11.1337 9.00008 10.667 10.6667ZM6.77366 21.3334H10.667C11.1337 23.0001 11.7337 24.6001 12.5337 26.0801C10.0937 25.2401 8.04033 23.5334 6.77366 21.3334ZM5.68033 18.6667C5.46699 17.8134 5.33366 16.9201 5.33366 16.0001C5.33366 15.0801 5.46699 14.1867 5.68033 13.3334H10.187C10.0803 14.2134 10.0003 15.0934 10.0003 16.0001C10.0003 16.9067 10.0803 17.7867 10.187 18.6667M16.0003 5.37341C17.107 6.97341 18.0003 8.76008 18.547 10.6667H13.4537C14.0003 8.76008 14.8937 6.97341 16.0003 5.37341ZM25.227 10.6667H21.2937C20.867 9.00008 20.2537 7.40008 19.4537 5.92008C21.907 6.76008 23.947 8.45341 25.227 10.6667ZM16.0003 2.66675C8.62699 2.66675 2.66699 8.66675 2.66699 16.0001C2.66699 19.5363 4.07175 22.9277 6.57223 25.4282C7.81035 26.6663 9.2802 27.6484 10.8979 28.3185C12.5156 28.9885 14.2494 29.3334 16.0003 29.3334C19.5365 29.3334 22.9279 27.9287 25.4284 25.4282C27.9289 22.9277 29.3337 19.5363 29.3337 16.0001C29.3337 14.2491 28.9888 12.5153 28.3187 10.8976C27.6487 9.27996 26.6665 7.81011 25.4284 6.57199C24.1903 5.33388 22.7204 4.35175 21.1028 3.68169C19.4851 3.01162 17.7513 2.66675 16.0003 2.66675Z" fill="black"/>
</svg>
