<svg width="78" height="15" viewBox="0 0 78 15" fill="none" xmlns="http://www.w3.org/2000/svg">
<path d="M7.00033 10.5741L10.6053 12.75L9.64866 8.64913L12.8337 5.88996L8.63949 5.52829L7.00033 1.66663L5.36116 5.52829L1.16699 5.88996L4.34616 8.64913L3.39533 12.75L7.00033 10.5741Z" fill="#080808"/>
<path d="M23.0003 10.5741L26.6053 12.75L25.6487 8.64913L28.8337 5.88996L24.6395 5.52829L23.0003 1.66663L21.3612 5.52829L17.167 5.88996L20.3462 8.64913L19.3953 12.75L23.0003 10.5741Z" fill="#080808"/>
<path d="M39.0003 10.5741L42.6053 12.75L41.6487 8.64913L44.8337 5.88996L40.6395 5.52829L39.0003 1.66663L37.3612 5.52829L33.167 5.88996L36.3462 8.64913L35.3953 12.75L39.0003 10.5741Z" fill="#080808"/>
<path d="M55.0003 10.5741L58.6053 12.75L57.6487 8.64913L60.8337 5.88996L56.6395 5.52829L55.0003 1.66663L53.3612 5.52829L49.167 5.88996L52.3462 8.64913L51.3953 12.75L55.0003 10.5741Z" fill="#080808"/>
<path d="M71.0003 10.5741L74.6053 12.75L73.6487 8.64913L76.8337 5.88996L72.6395 5.52829L71.0003 1.66663L69.3612 5.52829L65.167 5.88996L68.3462 8.64913L67.3953 12.75L71.0003 10.5741Z" fill="#080808"/>
</svg>
